<?xml version="1.0" standalone="no"?>
<!DOCTYPE svg PUBLIC "-//W3C//DTD SVG 1.1//EN" "http://www.w3.org/Graphics/SVG/1.1/DTD/svg11.dtd" >
<!--
2013-9-30: Created.
-->
<svg>
<metadata>
Created by iconfont
</metadata>
<defs>

<font id="iconfont" horiz-adv-x="1024" >
  <font-face
    font-family="iconfont"
    font-weight="500"
    font-stretch="normal"
    units-per-em="1024"
    ascent="896"
    descent="-128"
  />
    <missing-glyph />
    
    <glyph glyph-name="x" unicode="x" horiz-adv-x="1001"
d="M281 543q-27 -1 -53 -1h-83q-18 0 -36.5 -6t-32.5 -18.5t-23 -32t-9 -45.5v-76h912v41q0 16 -0.5 30t-0.5 18q0 13 -5 29t-17 29.5t-31.5 22.5t-49.5 9h-133v-97h-438v97zM955 310v-52q0 -23 0.5 -52t0.5 -58t-10.5 -47.5t-26 -30t-33 -16t-31.5 -4.5q-14 -1 -29.5 -0.5
t-29.5 0.5h-32l-45 128h-439l-44 -128h-29h-34q-20 0 -45 1q-25 0 -41 9.5t-25.5 23t-13.5 29.5t-4 30v167h911zM163 247q-12 0 -21 -8.5t-9 -21.5t9 -21.5t21 -8.5q13 0 22 8.5t9 21.5t-9 21.5t-22 8.5zM316 123q-8 -26 -14 -48q-5 -19 -10.5 -37t-7.5 -25t-3 -15t1 -14.5
t9.5 -10.5t21.5 -4h37h67h81h80h64h36q23 0 34 12t2 38q-5 13 -9.5 30.5t-9.5 34.5q-5 19 -11 39h-368zM336 498v228q0 11 2.5 23t10 21.5t20.5 15.5t34 6h188q31 0 51.5 -14.5t20.5 -52.5v-227h-327z" />
    

    
    <glyph glyph-name="gift" unicode="&#58927;" d="M851.568 594.896L590.4 594.896l-19.28 0c65.904 39.248 182.624 116.96 189.904 179.264 1.2 11.76-1.024 30.224-34.272 54.88-21.52 15.92-40.784 23.984-57.296 23.984-78.08 0-131.952-179.984-149.68-248.8-17.744 68.896-71.632 248.8-149.68 248.8-16.496 0-35.792-8.064-57.344-24-33.232-24.656-35.456-43.136-34.192-55.2 7.264-62.016 123.968-139.696 189.872-178.928l-19.28 0L187.968 594.896c-30.864 0-55.968-25.12-55.968-56l0-106.592c0-30.864 25.104-55.984 55.968-55.984l2.656 0 0-386.464c0-30.864 25.12-55.968 56-55.968l202.544 0L590.4-66.11199999999997 792.96-66.11199999999997c30.864 0 55.952 25.104 55.952 55.968L848.912 376.336l2.656 0c30.88 0 56 25.104 56 55.984l0 106.592C907.568 569.7760000000001 882.432 594.896 851.568 594.896zM669.472 821.024c4.32 0 16.656-1.728 38.256-17.696 14.048-10.416 22.08-20.112 21.504-25.776-3.904-33.344-72.496-94.208-170.832-153.056C594.912 752.432 641.488 821.024 669.472 821.024zM310.352 777.44c-0.608 5.792 7.424 15.472 21.44 25.872 21.632 15.984 34 17.712 38.304 17.712 27.984 0 74.576-68.592 111.056-196.544C382.848 683.328 314.256 744.192 310.352 777.44zM574.4 562.896l0-154.56-109.248 0 0 154.56L574.4 562.896zM187.968 408.336c-13.216 0-23.968 10.752-23.968 23.984l0 106.592c0 13.232 10.752 24 23.968 24l245.2 0 0-154.56L206.624 408.352 187.968 408.352zM222.624-10.128000000000043L222.624 376.336l210.544 0 0-410.432L246.624-34.096000000000004C233.376-34.096000000000004 222.624-23.34400000000005 222.624-10.128000000000043zM465.152-34.096000000000004L465.152 376.336 574.4 376.336l0-410.432L465.152-34.096000000000004zM792.96-34.096000000000004L606.4-34.096000000000004 606.4 376.336l210.496 0 0-386.464C816.912-23.34400000000005 806.16-34.096000000000004 792.96-34.096000000000004zM875.568 432.32c0-13.216-10.768-23.984-24-23.984l-18.656 0L606.4 408.336l0 154.56 245.152 0c13.232 0 24-10.768 24-24L875.552 432.32z"  horiz-adv-x="1024" />

    
    <glyph glyph-name="yijiuhuanxintubiao03" unicode="&#58933;" d="M512.006017 812C229.229486 812 0 582.770514 0 299.993983c0-282.764498 229.229486-511.993983 512.006017-511.993983 282.764498 0 511.993983 229.229486 511.993983 511.993983C1024 582.770514 794.770514 812 512.006017 812zM197.967638 346.910822c-0.216595 1.636494 0 9.578303 0.457256 11.78035 1.552263 25.822912 6.473778 50.984007 14.415587 74.941797 33.475928 101.185866 120.547033 180.832583 233.007861 199.507867 115.529254 19.168639 226.413753-31.285914 290.080588-120.619232l-0.288793 15.390263c-0.096264 4.620689 3.621946 8.447197 8.242635 8.543461l48.685695 0.878412c4.620689 0.084231 8.45923-3.59788 8.531428-8.242635 0 0-0.685884-65.953113-2.707435-104.48292-0.854346-15.835486-3.862607-27.086382-3.862607-27.086382-4.813218-17.303517-15.847519-26.472697-38.565906-23.295973-11.046334 1.552263-142.423107 42.596975-142.423107 42.596975-4.404094 1.407866-6.822736 6.148885-5.41487 10.552979l14.836743 46.375351c1.407866 4.416127 6.124819 6.834769 10.528913 5.426903l51.513461-16.473237c-47.386127 73.870856-135.624437 116.479865-227.677223 101.209932-93.80961-15.570759-164.467644-86.746213-183.937109-174.190343-2.322377-10.384517-4.091235-36.508255-4.127334-38.962996-0.300826-19.770291-16.581534-35.557645-36.363859-35.268852-17.736707 0.288793-32.236525 13.416844-34.811596 30.395469C198.100001 345.924112 197.967638 346.561863 197.967638 346.910822zM824.444001 211.659408C802.796555 78.16482 691.418701-27.557504 550.728352-36.570253c-116.888988-7.484553-222.154056 53.859904-276.519348 149.149579l-1.26347-15.354164c-0.373024-4.620689-4.42816-8.050106-9.036816-7.689115l-48.541299 4.007004c-4.608656 0.373024-8.038073 4.42816-7.665049 9.060882 0 0 7.292025 65.54399 13.200249 103.65264 2.418642 15.703122 6.545976 26.580994 6.545976 26.580994 6.533943 16.737964 18.446656 24.751971 40.71982 19.301002 10.829739-2.64727 137.417361-56.675637 137.417361-56.675637 4.259698-1.829023 6.197018-6.786637 4.343929-11.034301l-19.4093-44.642593c-1.841056-4.259698-6.79867-6.221084-11.034301-4.367995l-49.576141 21.551182c39.709045-78.226818 123.230402-129.475552 216.354129-123.519195 94.880551 6.064654 172.337254 69.779621 200.470511 154.829175 3.345186 10.107757 7.737247 35.930669 8.001974 38.361344 2.286278 19.661994 20.08315 33.728622 39.745144 31.418278 17.616376-2.033584 30.720361-16.569501 31.58674-33.740655 0 0 0.084231-0.637751 0.036099-0.974677C826.104561 221.682934 825.117851 213.80129 824.444001 211.659408z"  horiz-adv-x="1024" />

    
    <glyph glyph-name="fma" unicode="&#58894;" d="M511.999996 500.34756l111.303859 0c24.589948 0 44.521339 19.932413 44.521339 44.521339 0 24.589948-19.932413 44.521339-44.521339 44.521339L489.738816 589.390239c-73.765759 0-133.56504-59.799281-133.56504-133.56504l0-400.695119c0-24.589948 19.932413-44.521339 44.521339-44.521339 24.589948 0 44.521339 19.932413 44.521339 44.521339L445.216455 166.43496c0 36.884411 29.898108 66.78252 66.78252 66.78252l111.303859 0c24.589948 0 44.521339 19.932413 44.521339 44.521339 0 24.589948-19.932413 44.521339-44.521339 44.521339L511.999996 322.260159c-36.884411 0-66.78252 29.89913-66.78252 66.78252l0 44.521339C445.217476 470.449451 475.115585 500.34756 511.999996 500.34756zM511.999996 812c-282.768572 0-512-229.230407-512-512s229.231428-512 512-512 512 229.230407 512 512S794.768568 812 511.999996 812zM511.999996-122.9563c-233.592761 0-422.9563 189.363539-422.9563 422.9563S278.407235 722.9563 511.999996 722.9563s422.9563-189.36456 422.9563-422.9563S745.591735-122.9563 511.999996-122.9563z"  horiz-adv-x="1024" />

    
    <glyph glyph-name="little-right" unicode="&#59048;" d="M512 832C264.96 832 64 631.04 64 384s200.96-448 448-448 448 200.96 448 448S759.04 832 512 832zM661.76 360.03200000000004l-160.256-158.496c-6.24-6.144-14.368-9.248-22.496-9.248-8.256 0-16.512 3.168-22.752 9.504-12.416 12.576-12.32 32.8 0.256 45.248l137.408 135.904-136.288 136.672c-12.48 12.512-12.448 32.768 0.064 45.248 12.512 12.512 32.768 12.448 45.248-0.064l158.912-159.36c0.032-0.032 0.032-0.064 0.064-0.096s0.064-0.032 0.096-0.064c2.944-2.976 5.056-6.432 6.592-10.048 0.064-0.128 0.224-0.256 0.256-0.384C673.6 383.23199999999997 671.232 369.408 661.76 360.03200000000004z"  horiz-adv-x="1024" />

    
    <glyph glyph-name="xuangoushouji" unicode="&#58881;" d="M392.533333 234.666667 320 234.666667 320 640l264.533333 0c0 0 0-8.533333 0-8.533333l21.333333 0L605.866667 699.733333c0 12.8-4.266667 21.333333-17.066667 21.333333L315.733333 721.066667C302.933333 721.066667 298.666667 712.533333 298.666667 699.733333l0-537.6c0-12.8 4.266667-21.333333 17.066667-21.333333l76.8 0L392.533333 234.666667zM725.333333 593.066667l-273.066667 0c-12.8 0-17.066667-12.8-17.066667-21.333333l0-537.6c0-12.8 4.266667-21.333333 17.066667-21.333333L725.333333 12.8c12.8 0 17.066667 12.8 17.066667 21.333333L742.4 571.733333C742.4 580.266667 733.866667 593.066667 725.333333 593.066667zM618.666667 38.4 554.666667 38.4c-12.8 0-21.333333 8.533333-21.333333 21.333333s8.533333 21.333333 21.333333 21.333333l64 0c12.8 0 21.333333-8.533333 21.333333-21.333333S631.466667 38.4 618.666667 38.4zM721.066667 102.4l-264.533333 0L456.533333 512l264.533333 0L721.066667 102.4z"  horiz-adv-x="1024" />

    
    <glyph glyph-name="ffth" unicode="&#58885;" d="M631.466667 448c21.333333 0 38.4-4.266667 55.466667-8.533333 17.066667-8.533333 29.866667-17.066667 42.666667-29.866667 12.8-12.8 21.333333-25.6 29.866667-42.666667 8.533333-17.066667 8.533333-34.133333 8.533333-55.466667 0-21.333333-4.266667-38.4-12.8-55.466667-8.533333-17.066667-17.066667-29.866667-29.866667-42.666667-12.8-12.8-29.866667-21.333333-46.933333-29.866667S640 170.66666699999996 622.933333 170.66666699999996c-34.133333 0-59.733333 8.533333-76.8 21.333333s-34.133333 34.133333-46.933333 55.466667l51.2 17.066667c8.533333-17.066667 17.066667-29.866667 29.866667-38.4 12.8-8.533333 29.866667-12.8 46.933333-12.8 12.8 0 25.6 4.266667 34.133333 8.533333 12.8 4.266667 21.333333 12.8 29.866667 21.333333 8.533333 8.533333 12.8 17.066667 21.333333 29.866667 4.266667 12.8 8.533333 25.6 8.533333 38.4 0 17.066667-4.266667 29.866667-8.533333 42.666667-4.266667 12.8-12.8 21.333333-21.333333 29.866667-8.533333 8.533333-21.333333 12.8-34.133333 17.066667s-25.6 4.266667-42.666667 4.266667c-12.8 0-29.866667-4.266667-42.666667-8.533333-17.066667-4.266667-29.866667-12.8-42.666667-17.066667L529.066667 597.333333l226.133333 0 0-46.933333-174.933333 0 0-115.2c8.533333 4.266667 17.066667 8.533333 25.6 8.533333C614.4 448 622.933333 448 631.466667 448zM384 170.66666699999996L341.333333 170.66666699999996 341.333333 554.666667 298.666667 554.666667 256 597.333333l72.533333 0L384 597.333333 384 170.66666699999996zM512-85.33333300000004c-106.666667 0-200.533333 34.133333-281.6 93.866667 12.8 4.266667 25.6 12.8 38.4 25.6C337.066667-12.799999999999955 422.4-42.66666699999996 512-42.66666699999996c234.666667 0 426.666667 192 426.666667 426.666667S746.666667 810.666667 512 810.666667 85.333333 618.666667 85.333333 384c0-68.266667 17.066667-132.266667 46.933333-192-12.8-8.533333-21.333333-21.333333-29.866667-34.133333C64 226.133333 42.666667 302.93333299999995 42.666667 384 42.666667 644.266667 251.733333 853.333333 512 853.333333s469.333333-209.066667 469.333333-469.333333S772.266667-85.33333300000004 512-85.33333300000004z"  horiz-adv-x="1024" />

    
    <glyph glyph-name="set" unicode="&#58921;" d="M279.760756 434.013091c-17.873455 0-35.746909 6.795636-49.361455 20.386909l-194.513455 194.513455c-9.099636 9.099636-9.099636 23.808 0 32.907636s23.808 9.099636 32.907636 0l194.513455-194.513455c9.146182-9.099636 23.877818-9.076364 32.930909 0l109.405091 109.428364c4.375273 4.375273 6.772364 10.193455 6.772364 16.453818s-2.420364 12.101818-6.772364 16.477091L211.408756 823.901091c-9.099636 9.099636-9.099636 23.808 0 32.907636s23.808 9.099636 32.907636 0l194.234182-194.234182c13.149091-13.149091 20.410182-30.696727 20.410182-49.384727s-7.261091-36.212364-20.410182-49.384727l-109.405091-109.428364C315.530938 440.808727 297.657484 434.013091 279.760756 434.013091zM891.228393-119.55200000000002c-34.373818 0-68.701091 13.079273-94.859636 39.237818L512.83712 203.21745499999997c-9.099636 9.099636-9.099636 23.808 0 32.907636s23.808 9.099636 32.907636 0l283.554909-283.554909c34.187636-34.164364 89.716364-34.164364 123.904 0 34.117818 34.141091 34.117818 89.716364 0 123.904L669.625484 360.005818c-9.099636 9.076364-9.099636 23.808 0 32.907636s23.808 9.099636 32.907636 0L986.111302 109.38181799999995c52.270545-52.317091 52.270545-137.425455 0-189.696C959.952756-106.47272699999996 925.602211-119.55200000000002 891.228393-119.55200000000002zM366.91712 157.18399999999997c-94.976 0-188.485818 37.12-259.630545 108.288C0.488029 372.24727299999995-30.13888 536.7621819999999 31.04512 674.816 36.234938 686.545455 49.919302 691.921455 61.76512 686.661818 73.517847 681.448727 78.800756 667.6945450000001 73.610938 655.965091c-53.457455-120.599273-26.693818-264.285091 66.583273-357.562182 100.677818-100.654545 252.602182-123.438545 378.158545-56.552727 11.310545 6.050909 25.460364 1.722182 31.488-9.611636 6.050909-11.357091 1.745455-25.437091-9.611636-31.488C485.235665 171.47345499999994 425.773847 157.18399999999997 366.91712 157.18399999999997zM705.418938 435.106909c-1.489455 0-3.025455 0.139636-4.538182 0.442182-12.613818 2.490182-20.805818 14.731636-18.315636 27.345455 20.875636 105.541818-11.985455 213.922909-87.947636 289.908364-93.323636 93.300364-237.056 120.017455-357.608727 66.56C225.139665 814.149818 211.455302 819.479273 206.288756 831.208727 201.075665 842.961455 206.381847 856.715636 218.134575 861.905455c137.960727 61.207273 302.568727 30.626909 409.390545-76.194909 86.970182-86.970182 124.602182-211.037091 100.724364-331.869091C726.038575 442.763636 716.310575 435.106909 705.418938 435.106909z"  horiz-adv-x="1026" />

    
    <glyph glyph-name="fangdajing" unicode="&#58958;" d="M989.839992 7.62491 715.608258 259.454426c19.661805 25.487487 35.94056 53.317323 48.575322 83.187631 19.668968 46.50415 29.643134 95.895047 29.643134 146.799414s-9.974166 100.295264-29.643134 146.799414c-18.995633 44.909839-46.185902 85.23936-80.815607 119.869065s-74.959226 61.819974-119.869065 80.814584c-46.50415 19.669992-95.895047 29.643134-146.800437 29.643134-50.90539 0-100.295264-9.973142-146.800437-29.643134-44.909839-18.995633-85.23936-46.184879-119.869065-80.814584s-61.819974-74.959226-80.814584-119.869065c-19.669992-46.50415-29.643134-95.895047-29.643134-146.799414s9.973142-100.295264 29.643134-146.799414c18.995633-44.910862 46.184879-85.240383 80.814584-119.870088s74.959226-61.818951 119.869065-80.814584c46.50415-19.669992 95.895047-29.644157 146.800437-29.644157 50.904367 0 100.295264 9.974166 146.800437 29.644157 39.518039 16.714683 75.484182 39.781028 107.146299 68.671009l274.300296-251.891937c11.790534-10.827603 30.29805-10.039657 41.125653 1.7519l5.519714 6.010901C1002.419496-21.710208 1001.63155-3.203716 989.839992 7.62491zM416.699494 144.805246c-190.033078 0-344.636225 154.602124-344.636225 344.635201 0 190.033078 154.603147 344.635201 344.636225 344.635201s344.635201-154.603147 344.635201-344.635201C761.334695 299.40737 606.732571 144.805246 416.699494 144.805246z"  horiz-adv-x="1024" />

    
    <glyph glyph-name="gouwuche" unicode="&#59015;" d="M235.008 197.12c12.288-36.352 51.2-64.512 89.6-64.512H880.64l5.12 17.92 123.392 429.568c12.288 43.008-15.872 80.384-59.904 80.384H424.96c-13.824 0-25.088-11.264-25.088-25.088s11.264-25.088 25.088-25.088h524.288c10.752 0 15.36-5.632 12.288-16.384l-123.392-429.568 24.064 17.92h-537.088c-16.896 0-36.864 14.336-42.496 30.208l-208.896 619.52c-4.608 13.312-18.432 19.968-31.744 15.872-13.312-4.608-19.968-18.944-15.872-31.744l208.896-619.008z m164.352-203.264c0 55.808-44.544 100.864-99.84 100.864s-99.84-45.056-99.84-100.864 44.544-100.864 99.84-100.864c55.296 0.512 99.84 45.568 99.84 100.864z m-149.504 0c0 27.648 22.528 50.176 50.176 50.176s50.176-22.528 50.176-50.176-22.528-50.176-50.176-50.176c-28.16 0-50.176 22.528-50.176 50.176z m674.304 0c0 55.808-44.544 100.864-99.84 100.864s-99.84-45.056-99.84-100.864 44.544-100.864 99.84-100.864 99.84 45.568 99.84 100.864z m-150.016 0c0 27.648 22.528 50.176 50.176 50.176s50.176-22.528 50.176-50.176-22.528-50.176-50.176-50.176-50.176 22.528-50.176 50.176z"  horiz-adv-x="1024" />

    
    <glyph glyph-name="address" unicode="&#58900;" d="M512.006021-91.64660900000001c-89.059185 0-328.035466 421.40552-328.035466 624.726819 0 180.069098 147.159586 326.554357 328.035466 326.554358s328.035466-146.497301 328.035466-326.554358c0-203.309258-238.988323-624.726819-328.035466-624.726819z m0 915.156575c-160.959183 0-291.910864-130.289397-291.910865-290.429756 0-100.79968 64.927951-256.954292 125.701573-369.482425C429.41314 8.755700000000047 495.304413-55.52200800000003 512.006021-55.52200800000003c16.388528 0 81.822223 64.277708 165.679464 219.143876 61.014452 112.696716 126.2314 268.935618 126.2314 369.458342 0 160.152401-130.951681 290.429756-291.910864 290.429756zM512.006021 410.208398c-75.078964 0-136.153624 61.07466-136.153624 136.153624s61.07466 136.153624 136.153624 136.153624c75.066922 0 136.153624-61.07466 136.153623-136.153624S587.072943 410.208398 512.006021 410.208398z m0 236.182646c-55.162267 0-100.029022-44.878797-100.029022-100.029022s44.878797-100.029022 100.029022-100.029022 100.029022 44.878797 100.029022 100.029022-44.878797 100.029022-100.029022 100.029022z"  horiz-adv-x="1024" />

    
    <glyph glyph-name="liwu" unicode="&#58947;" d="M917.906172 660.655947L668.20411 660.655947c17.761526 18.117636 28.718065 42.827411 28.718065 70.088288 0 55.55427-45.423539 100.588953-101.45774 100.588953-39.444361 0-73.606415-22.334681-90.390683-54.92903-16.784268 32.594349-50.947346 54.92903-90.393753 54.92903-56.033178 0-101.456716-45.034682-101.456716-100.588953 0-27.260877 10.955516-51.971675 28.717042-70.088288L103.974561 660.655947c-22.462594 0-40.671305-19.166525-40.671305-42.814108l0-77.482699c0-23.644513 18.20871-42.813085 40.671305-42.813085l13.374612 0c-0.709151-5.240351-1.108241-10.601452-1.108241-16.07614l0-440.171068c0-56.574506 39.051411-102.434997 87.222527-102.434997l613.264335 0c48.171116 0 87.221504 45.859467 87.221504 102.434997L903.949298 481.469915c0 5.474688-0.399089 10.835789-1.108241 16.07614l15.065114 0c22.459524 0 40.669258 19.167548 40.669258 42.813085L958.57543 617.841839C958.57543 641.488399 940.365696 660.655947 917.906172 660.655947zM481.399563-5.893988c0 0-264.721127 0-281.580097 0-16.85897 0-28.338419 10.905374-28.338419 27.977191 0 17.070794 0 195.361433 0 195.361433l309.918515 0L481.399563-5.893988zM481.399563 273.873834l-309.918515 0L171.481048 497.211435l309.918515 0L481.399563 273.873834zM847.752392 22.440337c0-14.227026-15.544021-28.333302-28.457122-28.333302-12.913101 0-281.46037 0-281.46037 0L537.8349 217.444637l309.916469 0C847.752392 217.444637 847.752392 36.664294 847.752392 22.440337zM847.752392 273.873834L537.835923 273.873834 537.835923 497.211435l309.916469 0L847.752392 273.873834zM595.464435 790.553413c33.31885 0 60.324924-26.776853 60.324924-59.809177 0-33.031301-27.007097-59.807131-60.324924-59.807131-33.314757 0-60.3239 26.776853-60.3239 59.807131C535.140535 763.776559 562.150702 790.553413 595.464435 790.553413zM505.073752 685.085336c4.641717-9.015328 10.616802-17.23964 17.662265-24.429389l-35.325553 0C494.45388 667.845697 500.431012 676.070009 505.073752 685.085336zM414.679999 790.553413c33.31578 0 60.324924-26.776853 60.324924-59.809177 0-33.031301-27.009144-59.807131-60.324924-59.807131-33.31578 0-60.324924 26.776853-60.324924 59.807131C354.355075 763.776559 381.365242 790.553413 414.679999 790.553413zM905.164986 574.597943c0-8.246825-6.049786-23.469528-25.904996-23.469528L139.750369 551.128415c-19.853164 0-25.903973 15.22168-25.903973 23.469528l0 11.378142c0 8.246825 6.05081 22.046109 25.903973 22.046109L879.258966 608.022193c19.85521 0 25.904996-13.799284 25.904996-22.046109L905.163963 574.597943z"  horiz-adv-x="1024" />

    
    <glyph glyph-name="seven" unicode="&#58882;" d="M511.93603 872.711278a485.608247 485.608247 0 0 0 190.212559-38.388004A489.191128 489.191128 0 0 0 1000.743278 383.96801000000005a489.383068 489.383068 0 0 0-298.594689-450.227304 484.456607 484.456607 0 0 0-190.212559-38.451984 483.240987 483.240987 0 0 0-190.148579 38.451984A488.679288 488.679288 0 0 0 166.443996 38.475975999999946 487.591628 487.591628 0 0 0 23.320722 383.96801000000005a486.120087 486.120087 0 0 0 143.123274 345.619994 486.823868 486.823868 0 0 0 345.492034 143.123274z m0 23.288722a511.96801 511.96801 0 1 1 0.19194-1024A511.96801 511.96801 0 0 1 511.93603 896M230.807883 443.341456l187.525398 20.473602V649.421056h49.136645v-180.103718l288.357888 31.862043 3.90278-44.146204-292.260668-32.949703v-194.563199c0-33.397563 18.298282-50.032365 55.022805-50.032365h107.486411c38.835864 0 60.333146 11.452421 64.299906 34.357263 4.73452 25.336082 8.765261 54.127085 12.028241 86.181069 13.883661-6.270041 29.622743-12.348141 47.345205-18.554202-5.758201-37.876164-11.708341-68.266667-17.402562-91.107529-9.788941-37.748204-39.923524-56.814246-90.467729-56.814245H510.46449c-61.484786 0-92.131209 28.407123-92.131209 85.093408V418.645173l-183.174758-20.473602-4.35064 45.169885z"  horiz-adv-x="1024" />

    
    <glyph glyph-name="xiangyou_jiantou" unicode="&#58979;" d="M512-128C229.666595-128 0 101.666595 0 384 0 666.319568 229.666595 896 512 896s512-229.680432 512-512c0-282.333405-229.666595-512-512-512z m0 950.867027C270.003892 822.867027 73.146811 625.996108 73.146811 384S270.003892-54.853189 512-54.853189 950.853189 142.003892 950.853189 384 753.996108 822.867027 512 822.867027z m61.287784-647.403243a36.573405 36.573405 0 1 0-51.407568 52.002594l121.260973 119.960217H292.573405a36.587243 36.587243 0 0 0 0 73.14681h348.630487L523.111784 538.983784a36.587243 36.587243 0 0 0 51.795027 51.628973l181.607784-182.105946 0.069189-0.110703 0.110702-0.069189c3.362595-3.404108 5.784216-7.36173 7.541622-11.485405 0.069189-0.152216 0.249081-0.290595 0.290595-0.428973 5.452108-13.284324 2.698378-29.087135-8.081298-39.81146L573.287784 175.463784z"  horiz-adv-x="1024" />

    
    <glyph glyph-name="play" unicode="&#58918;" d="M512 770.9c213.4 0 386.9-173.6 386.9-386.9S725.4-2.8999999999999773 512-2.8999999999999773 125.1 170.60000000000002 125.1 384 298.6 770.9 512 770.9z m0 61.1C264.6 832 64 631.4 64 384s200.6-448 448-448 448 200.6 448 448S759.4 832 512 832M425.3 175.79999999999995c-29.1 0-50.1 23.4-50.1 55.7v305c0 32.3 21.1 55.7 50.1 55.7 10.3 0 20.8-3 31-8.9l264.2-152.5c19-10.9 29.8-28 29.8-46.8 0-18.8-10.9-35.9-29.8-46.8L456.3 184.70000000000005c-10.2-5.9-20.6-8.9-31-8.9z m11.1 348.4l-0.1-280.4 242.9 140.1-242.8 140.3z"  horiz-adv-x="1024" />

    
    <glyph glyph-name="message" unicode="&#58909;" d="M853 780.2H171c-73 0-108.6-36-108.6-108.1v-432.2c0-72 33.3-106.1 104.5-106.1h104.5l-12.9-110c0-13.3 7.4-25.5 19.1-31.7 5.3-2.9 11.2-4.3 17.1-4.3 7 0 14 2 20 6.1l207.5 140H857c72.4 0 104.5 34 104.5 106.1V672.1c0 72.1-36.2 108.1-108.5 108.1M303.1 404.7c-28.8 0-52.2 23.4-52.2 52.1 0 28.7 23.4 52.2 52.2 52.2 28.8 0 52.2-23.4 52.2-52.2 0-28.8-23.5-52.1-52.2-52.1m208.8 0c-28.9 0-52.4 23.4-52.4 52.1 0 28.7 23.5 52.2 52.4 52.2s52.4-23.4 52.4-52.2c0-28.8-23.6-52.1-52.4-52.1m209.1 0c-28.9 0-52.3 23.4-52.3 52.1 0 28.7 23.4 52.2 52.3 52.2s52.4-23.4 52.4-52.2c0-28.8-23.5-52.1-52.4-52.1m0 0"  horiz-adv-x="1024" />

    
    <glyph glyph-name="jiantou" unicode="&#58893;" d="M739.447391-127.999659a62.327446 62.327446 0 0 0-43.963719 17.988261L239.564891 340.548452a60.92798 60.92798 0 0 0 0 86.869304L695.483672 877.977606a62.668779 62.668779 0 0 0 87.927438 0 60.893846 60.893846 0 0 0 0-86.869304L371.524313 384.000171l411.92093-407.073998a60.92798 60.92798 0 0 0 0-86.903438 62.020246 62.020246 0 0 0-43.929586-18.022394z"  horiz-adv-x="1024" />

    
    <glyph glyph-name="xiayizhang" unicode="&#58902;" d="M394.397538 803.761231a44.425846 44.425846 0 0 1-65.45723-0.078769 51.751385 51.751385 0 0 1 0-69.789539l0.236307-0.236308 327.128616-348.632615-327.443693-348.947692-0.315076-0.236308a51.751385 51.751385 0 0 1 0-69.789538c18.116923-19.298462 47.419077-19.298462 65.45723 0l0.236308 0.315076 392.900923 418.737231-392.743385 418.658462z"  horiz-adv-x="1024" />

    
    <glyph glyph-name="shangyizhang" unicode="&#58907;" d="M774.144 35.761231l-0.315077 0.236307-327.443692 348.947693L773.513846 733.577846l0.315077 0.315077a51.593846 51.593846 0 0 1 0 69.789539 44.268308 44.268308 0 0 1-65.378461 0.078769L315.470769 385.024l392.900923-418.737231 0.236308-0.315077a44.268308 44.268308 0 0 1 65.457231 0 51.672615 51.672615 0 0 1 0.078769 69.789539z"  horiz-adv-x="1024" />

    
    <glyph glyph-name="huafeichongzhi" unicode="&#58896;" d="M898.624-47.552H86.144L0 73.664v592l100.288 109.888h814.656L1024 666.496v-596.48l-125.376-117.568zM62.976 466.432v-372.672l55.68-78.336h755.008l87.296 81.856V459.968m5.696 96.192l-5.632 84.224-72.128 72.128H128.128L62.976 641.216v-86.272M124.032 363.968h364.032v-64H124.032zM644.032 235.968h60.032v-64h-60.032zM124.032 235.968h364.032v-64H124.032zM764.032 235.968h64v-64h-64z"  horiz-adv-x="1024" />

    
    <glyph glyph-name="mifenqia" unicode="&#58880;" d="M837.824-120H170.048s-34.24 24.768-56.128 60.736c-11.648 26.56-13.888 54.272-13.888 54.272V811.712l34.816 41.216 26.304 31.04h512.064l250.752-250.752V-28.799999999999955s0.192-27.264-20.032-63.232c-32-31.488-66.112-27.968-66.112-27.968z m-631.872 64h604.224l49.792 52.736V606.72l-213.248 213.248H190.848l-26.816-31.68v-775.296l41.92-68.992zM252.032 739.968h64v-216h-64zM364.736 739.968h64v-216h-64zM480 739.968h64v-216h-64zM256 299.96799999999996h164.032V416H284.032L256 384zM791.232 132.41600000000005l-175.552-0.832 0.64-116.032 136 0.768 27.776 32.128zM615.68 416v-116.032h180.352V382.01599999999996L752 416zM428.736 17.408000000000015l-1.856 116.032-180.288-2.88 1.344-81.92 44.48-33.344zM254.784 277.76h166.4v-107.52h-166.4zM456 416h128v-400.448h-128zM615.68 280h180.288v-112H615.68z"  horiz-adv-x="1024" />

    


  </font>
</defs>
</svg>
